# xmcd
#
# Track frame offsets:
#	150
#	16071
#	31367
#	45794
#	61738
#	78705
#	92144
#	109361
#	129668
#	146954
#	162507
#	177703
#	194241
#	213452
#	234373
#
# Disc length: 3343 seconds
#
# Revision: 0
# Processed by: cddbd v1.5.2PL0 Copyright (c) Steve Scherf et al.
# Submitted via: EasyCDDAExtractor 15.3.0.1
#
DISCID=da0d0d0f
DTITLE=Dulce - Las Numero 1
DYEAR=2008
DGENRE=Latin
TTITLE0=Usted
TTITLE1=Salvaje
TTITLE2=Lobo
TTITLE3=Heridas
TTITLE4=Tu Muñeca
TTITLE5=Fui Demasiado Facil
TTITLE6=Hielo
TTITLE7=Pajaro Herido
TTITLE8=Sinceridad
TTITLE9=Tu De Repente Tu
TTITLE10=Poquita Fe
TTITLE11=Señor Amor
TTITLE12=Cara A Cara
TTITLE13=Echame La Culpa A Mi
TTITLE14=Amor En Silencio
EXTD=
EXTT0=
EXTT1=
EXTT2=
EXTT3=
EXTT4=
EXTT5=
EXTT6=
EXTT7=
EXTT8=
EXTT9=
EXTT10=
EXTT11=
EXTT12=
EXTT13=
EXTT14=
PLAYORDER=
